<?xml version="1.0" encoding="UTF-8" standalone="no"?>
<!DOCTYPE svg PUBLIC "-//W3C//DTD SVG 1.1//EN"
 "http://www.w3.org/Graphics/SVG/1.1/DTD/svg11.dtd">
<!-- Generated by graphviz version 2.47.0 (20210316.0004)
 -->
<!-- Title: dependencies Pages: 1 -->
<svg width="504pt" height="284pt"
 viewBox="0.00 0.00 504.00 284.00" xmlns="http://www.w3.org/2000/svg" xmlns:xlink="http://www.w3.org/1999/xlink">
<g id="graph0" class="graph" transform="scale(1 1) rotate(0) translate(4 280)">
<title>dependencies</title>
<polygon fill="white" stroke="transparent" points="-4,4 -4,-280 500,-280 500,4 -4,4"/>
<text text-anchor="start" x="227.01" y="-42.4" font-family="Times-12" font-weight="bold" font-size="14.00">Legend</text>
<polygon fill="#ffffb3" stroke="transparent" points="14,-10 14,-30 34,-30 34,-10 14,-10"/>
<text text-anchor="start" x="37.63" y="-15.4" font-family="Times-12" font-size="14.00"> &#160;Declarations</text>
<polygon fill="#8dd3c7" stroke="transparent" points="127,-10 127,-30 147,-30 147,-10 127,-10"/>
<text text-anchor="start" x="150.73" y="-15.4" font-family="Times-12" font-size="14.00"> &#160;Module</text>
<polygon fill="#80b1d3" stroke="transparent" points="213,-10 213,-30 233,-30 233,-10 213,-10"/>
<text text-anchor="start" x="236.78" y="-15.4" font-family="Times-12" font-size="14.00"> &#160;Bootstrap</text>
<polygon fill="#fdb462" stroke="transparent" points="310,-10 310,-30 330,-30 330,-10 310,-10"/>
<text text-anchor="start" x="333.67" y="-15.4" font-family="Times-12" font-size="14.00"> &#160;Providers</text>
<polygon fill="#fb8072" stroke="transparent" points="406,-10 406,-30 426,-30 426,-10 406,-10"/>
<text text-anchor="start" x="429.73" y="-15.4" font-family="Times-12" font-size="14.00"> &#160;Exports</text>
<g id="clust1" class="cluster">
<title>cluster_MailModule</title>
<polygon fill="none" stroke="black" stroke-dasharray="1,5" points="114,-70 114,-268 382,-268 382,-70 114,-70"/>
</g>
<g id="clust4" class="cluster">
<title>cluster_MailModule_exports</title>
<polygon fill="none" stroke="black" points="191,-208 191,-260 295,-260 295,-208 191,-208"/>
</g>
<g id="clust6" class="cluster">
<title>cluster_MailModule_providers</title>
<polygon fill="none" stroke="black" points="242,-78 242,-130 374,-130 374,-78 242,-78"/>
</g>
<g id="clust3" class="cluster">
<title>cluster_MailModule_imports</title>
<polygon fill="none" stroke="black" points="122,-78 122,-130 234,-130 234,-78 122,-78"/>
</g>
<!-- QueueModule -->
<g id="node1" class="node">
<title>QueueModule</title>
<polygon fill="#8dd3c7" stroke="black" points="226.09,-122 223.09,-126 202.09,-126 199.09,-122 129.91,-122 129.91,-86 226.09,-86 226.09,-122"/>
<text text-anchor="middle" x="178" y="-99.8" font-family="Times,serif" font-size="14.00">QueueModule</text>
</g>
<!-- MailModule -->
<g id="node2" class="node">
<title>MailModule</title>
<polygon fill="#8dd3c7" stroke="black" points="285.99,-187 282.99,-191 261.99,-191 258.99,-187 200.01,-187 200.01,-151 285.99,-151 285.99,-187"/>
<text text-anchor="middle" x="243" y="-164.8" font-family="Times,serif" font-size="14.00">MailModule</text>
</g>
<!-- QueueModule&#45;&gt;MailModule -->
<g id="edge1" class="edge">
<title>QueueModule&#45;&gt;MailModule</title>
<path fill="none" stroke="black" d="M213.02,-122.11C213.02,-122.11 213.02,-140.99 213.02,-140.99"/>
<polygon fill="black" stroke="black" points="209.52,-140.99 213.02,-150.99 216.52,-140.99 209.52,-140.99"/>
</g>
<!-- MailService  -->
<g id="node3" class="node">
<title>MailService </title>
<polygon fill="#fb8072" stroke="black" points="286.92,-252 199.08,-252 199.08,-216 286.92,-216 286.92,-252"/>
<text text-anchor="middle" x="243" y="-229.8" font-family="Times,serif" font-size="14.00">MailService </text>
</g>
<!-- MailModule&#45;&gt;MailService  -->
<g id="edge2" class="edge">
<title>MailModule&#45;&gt;MailService </title>
<path fill="none" stroke="black" stroke-dasharray="5,2" d="M243,-187.11C243,-187.11 243,-205.99 243,-205.99"/>
<polygon fill="black" stroke="black" points="239.5,-205.99 243,-215.99 246.5,-205.99 239.5,-205.99"/>
</g>
<!-- MailService -->
<g id="node4" class="node">
<title>MailService</title>
<ellipse fill="#fdb462" stroke="black" cx="308" cy="-104" rx="58.46" ry="18"/>
<text text-anchor="middle" x="308" y="-99.8" font-family="Times,serif" font-size="14.00">MailService</text>
</g>
<!-- MailService&#45;&gt;MailModule -->
<g id="edge3" class="edge">
<title>MailService&#45;&gt;MailModule</title>
<path fill="none" stroke="black" d="M267.88,-117.15C267.88,-117.15 267.88,-140.69 267.88,-140.69"/>
<polygon fill="black" stroke="black" points="264.38,-140.69 267.88,-150.69 271.38,-140.69 264.38,-140.69"/>
</g>
</g>
</svg>
