<?xml version="1.0" encoding="UTF-8" standalone="no"?>
<!DOCTYPE svg PUBLIC "-//W3C//DTD SVG 1.1//EN"
 "http://www.w3.org/Graphics/SVG/1.1/DTD/svg11.dtd">
<!-- Generated by graphviz version 2.47.0 (20210316.0004)
 -->
<!-- Title: dependencies Pages: 1 -->
<svg width="1100pt" height="211pt"
 viewBox="0.00 0.00 1100.00 211.00" xmlns="http://www.w3.org/2000/svg" xmlns:xlink="http://www.w3.org/1999/xlink">
<g id="graph0" class="graph" transform="scale(1 1) rotate(0) translate(4 207)">
<title>dependencies</title>
<polygon fill="white" stroke="transparent" points="-4,4 -4,-207 1096,-207 1096,4 -4,4"/>
<text text-anchor="start" x="525.01" y="-42.4" font-family="Times-12" font-weight="bold" font-size="14.00">Legend</text>
<polygon fill="#ffffb3" stroke="transparent" points="312,-10 312,-30 332,-30 332,-10 312,-10"/>
<text text-anchor="start" x="335.63" y="-15.4" font-family="Times-12" font-size="14.00"> &#160;Declarations</text>
<polygon fill="#8dd3c7" stroke="transparent" points="425,-10 425,-30 445,-30 445,-10 425,-10"/>
<text text-anchor="start" x="448.73" y="-15.4" font-family="Times-12" font-size="14.00"> &#160;Module</text>
<polygon fill="#80b1d3" stroke="transparent" points="511,-10 511,-30 531,-30 531,-10 511,-10"/>
<text text-anchor="start" x="534.78" y="-15.4" font-family="Times-12" font-size="14.00"> &#160;Bootstrap</text>
<polygon fill="#fdb462" stroke="transparent" points="608,-10 608,-30 628,-30 628,-10 608,-10"/>
<text text-anchor="start" x="631.67" y="-15.4" font-family="Times-12" font-size="14.00"> &#160;Providers</text>
<polygon fill="#fb8072" stroke="transparent" points="704,-10 704,-30 724,-30 724,-10 704,-10"/>
<text text-anchor="start" x="727.73" y="-15.4" font-family="Times-12" font-size="14.00"> &#160;Exports</text>
<g id="clust1" class="cluster">
<title>cluster_AuthModule</title>
<polygon fill="none" stroke="black" stroke-dasharray="1,5" points="8,-70 8,-195 1084,-195 1084,-70 8,-70"/>
</g>
<g id="clust6" class="cluster">
<title>cluster_AuthModule_providers</title>
<polygon fill="none" stroke="black" points="244,-78 244,-130 1076,-130 1076,-78 244,-78"/>
</g>
<g id="clust3" class="cluster">
<title>cluster_AuthModule_imports</title>
<polygon fill="none" stroke="black" points="16,-78 16,-130 236,-130 236,-78 16,-78"/>
</g>
<!-- MailModule -->
<g id="node1" class="node">
<title>MailModule</title>
<polygon fill="#8dd3c7" stroke="black" points="227.99,-122 224.99,-126 203.99,-126 200.99,-122 142.01,-122 142.01,-86 227.99,-86 227.99,-122"/>
<text text-anchor="middle" x="185" y="-99.8" font-family="Times,serif" font-size="14.00">MailModule</text>
</g>
<!-- AuthModule -->
<g id="node3" class="node">
<title>AuthModule</title>
<polygon fill="#8dd3c7" stroke="black" points="571.55,-187 568.55,-191 547.55,-191 544.55,-187 484.45,-187 484.45,-151 571.55,-151 571.55,-187"/>
<text text-anchor="middle" x="528" y="-164.8" font-family="Times,serif" font-size="14.00">AuthModule</text>
</g>
<!-- MailModule&#45;&gt;AuthModule -->
<g id="edge1" class="edge">
<title>MailModule&#45;&gt;AuthModule</title>
<path fill="none" stroke="black" d="M185,-122.11C185,-141.34 185,-169 185,-169 185,-169 474.21,-169 474.21,-169"/>
<polygon fill="black" stroke="black" points="474.21,-172.5 484.21,-169 474.21,-165.5 474.21,-172.5"/>
</g>
<!-- UploadModule -->
<g id="node2" class="node">
<title>UploadModule</title>
<polygon fill="#8dd3c7" stroke="black" points="124.26,-122 121.26,-126 100.26,-126 97.26,-122 23.74,-122 23.74,-86 124.26,-86 124.26,-122"/>
<text text-anchor="middle" x="74" y="-99.8" font-family="Times,serif" font-size="14.00">UploadModule</text>
</g>
<!-- UploadModule&#45;&gt;AuthModule -->
<g id="edge2" class="edge">
<title>UploadModule&#45;&gt;AuthModule</title>
<path fill="none" stroke="black" d="M74,-122.29C74,-144.21 74,-178 74,-178 74,-178 474.06,-178 474.06,-178"/>
<polygon fill="black" stroke="black" points="474.06,-181.5 484.06,-178 474.06,-174.5 474.06,-181.5"/>
</g>
<!-- AuthService -->
<g id="node4" class="node">
<title>AuthService</title>
<ellipse fill="#fdb462" stroke="black" cx="1009" cy="-104" rx="59.11" ry="18"/>
<text text-anchor="middle" x="1009" y="-99.8" font-family="Times,serif" font-size="14.00">AuthService</text>
</g>
<!-- AuthService&#45;&gt;AuthModule -->
<g id="edge3" class="edge">
<title>AuthService&#45;&gt;AuthModule</title>
<path fill="none" stroke="black" d="M1009,-122.29C1009,-144.21 1009,-178 1009,-178 1009,-178 581.96,-178 581.96,-178"/>
<polygon fill="black" stroke="black" points="581.96,-174.5 571.96,-178 581.96,-181.5 581.96,-174.5"/>
</g>
<!-- GithubStrategy -->
<g id="node5" class="node">
<title>GithubStrategy</title>
<ellipse fill="#fdb462" stroke="black" cx="862" cy="-104" rx="70.08" ry="18"/>
<text text-anchor="middle" x="862" y="-99.8" font-family="Times,serif" font-size="14.00">GithubStrategy</text>
</g>
<!-- GithubStrategy&#45;&gt;AuthModule -->
<g id="edge4" class="edge">
<title>GithubStrategy&#45;&gt;AuthModule</title>
<path fill="none" stroke="black" d="M862,-122.11C862,-141.34 862,-169 862,-169 862,-169 581.66,-169 581.66,-169"/>
<polygon fill="black" stroke="black" points="581.66,-165.5 571.66,-169 581.66,-172.5 581.66,-165.5"/>
</g>
<!-- GoogleStrategy -->
<g id="node6" class="node">
<title>GoogleStrategy</title>
<ellipse fill="#fdb462" stroke="black" cx="702" cy="-104" rx="71.79" ry="18"/>
<text text-anchor="middle" x="702" y="-99.8" font-family="Times,serif" font-size="14.00">GoogleStrategy</text>
</g>
<!-- GoogleStrategy&#45;&gt;AuthModule -->
<g id="edge5" class="edge">
<title>GoogleStrategy&#45;&gt;AuthModule</title>
<path fill="none" stroke="black" d="M702,-122.03C702,-138.4 702,-160 702,-160 702,-160 581.91,-160 581.91,-160"/>
<polygon fill="black" stroke="black" points="581.91,-156.5 571.91,-160 581.91,-163.5 581.91,-156.5"/>
</g>
<!-- JwtAccessStrategy -->
<g id="node7" class="node">
<title>JwtAccessStrategy</title>
<ellipse fill="#fdb462" stroke="black" cx="528" cy="-104" rx="83.94" ry="18"/>
<text text-anchor="middle" x="528" y="-99.8" font-family="Times,serif" font-size="14.00">JwtAccessStrategy</text>
</g>
<!-- JwtAccessStrategy&#45;&gt;AuthModule -->
<g id="edge6" class="edge">
<title>JwtAccessStrategy&#45;&gt;AuthModule</title>
<path fill="none" stroke="black" d="M528,-122.11C528,-122.11 528,-140.99 528,-140.99"/>
<polygon fill="black" stroke="black" points="524.5,-140.99 528,-150.99 531.5,-140.99 524.5,-140.99"/>
</g>
<!-- JwtRefreshStrategy -->
<g id="node8" class="node">
<title>JwtRefreshStrategy</title>
<ellipse fill="#fdb462" stroke="black" cx="339" cy="-104" rx="86.81" ry="18"/>
<text text-anchor="middle" x="339" y="-99.8" font-family="Times,serif" font-size="14.00">JwtRefreshStrategy</text>
</g>
<!-- JwtRefreshStrategy&#45;&gt;AuthModule -->
<g id="edge7" class="edge">
<title>JwtRefreshStrategy&#45;&gt;AuthModule</title>
<path fill="none" stroke="black" d="M339,-122.03C339,-138.4 339,-160 339,-160 339,-160 474.16,-160 474.16,-160"/>
<polygon fill="black" stroke="black" points="474.16,-163.5 484.16,-160 474.16,-156.5 474.16,-163.5"/>
</g>
</g>
</svg>
